<?xml version="1.0" encoding="UTF-8"?>
<svg id="Layer_2" data-name="Layer 2" xmlns="http://www.w3.org/2000/svg" viewBox="0 0 1035.63 895.57">
  <defs>
    <style>
      .cls-1 {
        fill: #ab9059;
      }

      .cls-1, .cls-2 {
        stroke-width: 0px;
      }

      .cls-2 {
        fill: #fff;
      }
    </style>
  </defs>
  <g id="Layer_1-2" data-name="Layer 1">
    <g>
      <g>
        <path class="cls-2" d="M1006.02,755.75c-4.15,3.76-5.93,9.03-8.84,13.49-4.22,6.48-8.09,13.2-11.99,19.89-2.35,4.04-5.62,5.79-10.32,5.26-1.95-.22-3.08-.57-4.24-2.49-7.02-11.61-14.33-23.04-21.54-34.53-.34-.54-.59-1.21-2-.99v26.6c0,5.99-.13,11.99.05,17.97.09,3.13-.77,4.53-4.17,4.42-6.65-.21-13.32-.19-19.97,0-3.18.09-3.93-1.25-3.92-4.15.07-32.29.08-64.58,0-96.87-.01-3.67,1.28-5.08,4.96-4.97,5.99.19,11.98.03,17.97.06,2.23.01,4.02.47,5.23,2.89,6.18,12.3,14.44,23.37,21.35,35.24,2.42,4.16,4.88,8.29,7.28,12.46,1.16,2.01,2.14,2.98,3.75.26,8.09-13.67,16.54-27.13,24.31-40.98,3.77-6.73,7.68-11.61,16.39-9.97,4.51.85,10.54-1.86,13.51.98,3.22,3.07,1.1,9.14,1.11,13.88.11,28.63-.03,57.26.14,85.88.02,4.15-1.16,5.55-5.33,5.32-5.97-.32-11.99-.28-17.97-.01-3.71.17-4.9-1.02-4.85-4.79.2-13.48.1-26.96.05-40.44,0-1.39.59-2.99-.98-4.41Z"/>
        <path class="cls-2" d="M111.8,755.8c-1.44,1.56-.82,3.3-.83,4.86-.06,13.31-.15,26.63.05,39.94.06,3.75-1.11,4.95-4.83,4.8-6.48-.27-12.98-.16-19.47-.03-2.79.06-3.8-.96-3.79-3.77.06-32.78.06-65.56,0-98.35,0-2.73.84-3.91,3.71-3.85,6.32.14,12.65.11,18.97,0,2.27-.04,3.64.81,4.81,2.77,7.82,13.09,15.74,26.11,23.62,39.15,1.71,2.83,3.39,5.68,5.13,8.48,1.76,2.83,2.99,2.74,4.78-.31,9.26-15.82,18.76-31.51,28.12-47.27,1.14-1.93,2.62-2.83,4.85-2.8,5.82.06,11.66.26,17.47-.06,4.12-.23,4.53,1.74,4.52,5.1-.1,25.13-.05,50.25-.05,75.38,0,7.16-.11,14.31.05,21.47.06,3-.93,4.15-4.01,4.07-6.82-.17-13.65-.08-20.47-.04-2.99.02-3.98-.53-3.85-4.29.49-14.46.2-28.94.17-43.41,0-.44-.39-.87-.91-1.96-3.54,3.85-5.64,8.26-8.18,12.31-4.66,7.45-8.97,15.12-13.59,22.59-3.45,5.57-11.03,5.59-14.54-.02-7.01-11.22-13.8-22.58-20.7-33.87-.21-.35-.64-.56-1.02-.89Z"/>
        <path class="cls-2" d="M396.66,750.95c0-14.65-.02-29.3,0-43.95.01-7.56.05-7.56,7.28-7.57,25.8,0,51.61.1,77.41-.09,4.77-.04,6.71,1.35,6.27,6.23-.33,3.63-.06,7.32-.07,10.98q0,6.85-6.62,6.85c-16.32,0-32.63,0-48.95,0-6.35,0-6.39.02-6.36,6.46.05,11.74-1.29,10.46,10.29,10.51,7.49.03,14.99.14,22.47-.05,3.33-.09,4.38,1.15,4.24,4.36-.21,4.82-.22,9.66,0,14.48.15,3.32-1.13,4.31-4.34,4.26-9.49-.16-18.98.06-28.47-.12-3.3-.06-4.22,1.12-4.28,4.33-.25,13.72-.35,13.71,13.32,13.71,15.98,0,31.97.11,47.95-.08,3.74-.04,5.01,1.09,4.8,4.83-.28,5.15-.17,10.32-.03,15.48.08,2.8-.97,3.79-3.78,3.78-28.8-.06-57.6-.09-86.4.03-3.15.01-4.16-1.52-4.43-4.06-.25-2.46-.31-4.95-.31-7.43-.03-14.32-.01-28.63-.01-42.95Z"/>
        <path class="cls-2" d="M796.25,735.44c0,9.98-.03,19.97,0,29.95.04,11.95,7.16,18.98,19.2,18.95,3.47,0,6.91.22,10.35-.95,8.77-2.98,12.38-7.7,12.39-16.94.03-20.3.14-40.6-.09-60.89-.06-4.88,1.55-6.47,6.31-6.19,5.97.34,11.98.18,17.96.04,3.32-.08,4.84,1.03,4.83,4.58-.09,20.63.22,41.27-.15,61.89-.22,12.12-3.76,23.37-13.51,31.43-8.42,6.96-18.56,10.23-29.34,10.94-11.5.75-22.9.1-33.61-4.94-12.61-5.94-20.67-15.65-22.22-29.52-2.62-23.34-.51-46.83-1.11-70.24-.08-3.01,1.33-4.15,4.24-4.12,6.65.08,13.31.16,19.96-.03,3.81-.11,4.87,1.57,4.82,5.11-.14,10.31-.05,20.63-.05,30.95Z"/>
        <path class="cls-2" d="M29.02,753.4c0,16.12-.07,32.25.06,48.37.02,2.93-.46,3.87-3.75,3.69-6.96-.4-13.96-.25-20.94-.08-3.14.08-4.41-.8-4.4-4.18.1-32.41.09-64.82.02-97.23,0-3.56,1.53-4.64,4.84-4.56,6.15.14,12.31.25,18.45-.03,4.29-.19,5.86,1.22,5.81,5.66-.21,16.12-.08,32.24-.08,48.37Z"/>
        <path class="cls-2" d="M686.36,752.43c0-15.64.17-31.28-.1-46.92-.09-4.93,1.64-6.42,6.35-6.16,5.97.33,11.98.19,17.96.04,3.36-.08,4.8,1.1,4.79,4.62-.07,32.44-.07,64.89,0,97.33,0,3.05-1.02,4.1-4.05,4.03-6.82-.16-13.65-.21-20.46.02-3.48.11-4.61-1.03-4.57-4.54.16-16.14.07-32.28.07-48.41Z"/>
        <path class="cls-2" d="M631.7,875.25c10.03.14,8.61-1.32,8.7,8.73.07,7.84-.64,8.65-8.6,10.59-10.64,2.59-20.68-1.2-23.92-11.12-2.93-8.94,2.16-19.44,11.45-21.6,5.61-1.31,11.23-.95,16.56,1.26,1.8.75,4.73,1.87,3.42,4.4-1.16,2.24-3.22,5.04-6.79,2.81-.84-.53-1.75-.97-2.69-1.3-3.82-1.34-7.55-1.31-10.58,1.71-3.43,3.43-3.96,8.02-2.22,12.04,1.71,3.95,5.54,6.15,10.27,5.43,2.32-.36,5.01-.86,4.91-3.87-.11-3.18-2.95-1.94-4.68-2.01-2.38-.1-4.14-.18-4.19-3.39-.06-3.39,1.68-3.87,4.36-3.69,1.32.09,2.66.02,3.99.02Z"/>
        <path class="cls-2" d="M389.67,877.91c0-3.99.12-7.98-.03-11.97-.15-4,2.3-5.21,5.4-4.51,6.12,1.39,12.24.86,18.34.59,2.94-.13,4.76.53,4.84,3.34.07,2.58-1.36,4.14-4.44,3.95-3.97-.26-7.97-.05-11.96-.05-1.6,0-3.01.18-3.1,2.3-.1,2.36,1.34,2.72,3.21,2.69,1.66-.03,3.33.04,4.99,0,2.81-.06,3.76,1.45,3.75,4.07,0,2.72-1.19,4-3.91,3.92-1.49-.04-2.99-.02-4.49.02-1.8.04-3.5.46-3.35,2.7.12,1.89,1.7,2.26,3.3,2.27,4.32.02,8.64-.05,12.96.05,1.65.04,4.07-.63,3.71,2.47-.26,2.21.05,4.68-3.64,4.56-7.31-.23-14.63-.16-21.94-.02-2.91.05-3.75-1.2-3.66-3.89.14-4.15.04-8.31.04-12.46Z"/>
        <path class="cls-2" d="M810.23,874.64c0,1.5-.08,3,.02,4.49.39,6.02-.75,11.49-6.67,14.34-6.35,3.05-12.75,2.84-18.92-.99-3.59-2.23-5.24-5.5-5.34-9.52-.15-5.65.13-11.31-.1-16.95-.16-3.82,2.06-3.76,4.77-3.8,2.7-.04,4.47.37,4.33,3.73-.2,4.81-.1,9.64-.03,14.45.07,5.36,2.28,7.82,6.88,7.83,3.95,0,6.02-2.63,6.08-7.95.06-4.82.23-9.65-.04-14.45-.27-4.81,3.61-3.62,5.86-4.06,2.42-.48,3.27,1.57,3.2,3.91-.09,2.99-.02,5.98-.02,8.97Z"/>
        <path class="cls-2" d="M544.4,861.88c4.29,1.3,9.2-1.78,12.7,4.19,3.11,5.3,3.97,5.04,7.2-.21,2.11-3.44,5.02-4.66,8.71-4.54,2.85.09,4.24,1.18,2.03,4.01-1.63,2.08-3.11,4.29-4.79,6.33-4.33,5.23-6.58,11.11-5.75,17.97.4,3.33-.7,4.8-4.37,4.72-3.3-.07-5.29-.8-4.6-4.45,1.94-10.35-4.17-17.49-9.75-24.86-.49-.65-1.02-1.28-1.5-1.94-.07-.09.02-.29.13-1.21Z"/>
        <path class="cls-2" d="M509.59,894.23c-3.27.65-4.24-1.12-4.1-4.51.21-4.97-.22-9.98.14-14.94.32-4.35-1.02-6.12-5.52-5.62-1.74.19-4.12,1.1-5.33-1.32-1.45-2.91.7-6.61,3.9-6.14,7.29,1.08,14.58.51,21.85.44,3.58-.03,4.3,1.91,4.51,4.44.27,3.14-2.37,2.88-4.17,2.6-5.55-.85-6.82,1.73-6.41,6.7.38,4.62.12,9.29.07,13.94-.05,4.31-.2,4.42-4.93,4.4Z"/>
        <path class="cls-2" d="M536.51,752.34c0-15.98.12-31.96-.09-47.93-.05-3.98,1.17-5.09,5.09-5.05,19.14.18,38.3-.5,57.41.27,15.33.62,28.67,6.3,35.49,21.44,5.62,12.45,2.61,28.38-8.42,36.93-7.97,6.18-8.06,6.04-2.94,14.75,5.61,9.55,11.14,19.14,16.82,28.64,1.81,3.04,1.18,4.03-2.32,3.97-8.15-.13-16.31-.08-24.47-.02-2.37.02-3.7-.63-4.94-3.05-4.97-9.72-10.46-19.16-15.61-28.79-1.99-3.72-4.45-5.7-9.02-5.24-4.78.47-9.65.2-14.47.08-3.08-.08-4.69.97-4.59,4.29.29,9.8-.57,19.63.47,29.41.3,2.75-.99,3.25-3.03,3.26-7.49.05-14.98-.01-22.47.03-3.48.02-2.91-2.47-2.92-4.55-.02-16.14-.01-32.29-.01-48.43ZM600.8,744.48c5.5-1.67,7.9-5.34,7.64-11.72-.21-5.11-3.14-8.45-8.36-9.41-10.72-1.98-21.54-.51-32.3-.88-2.62-.09-3.31,1.69-3.29,3.98.03,5.15.09,10.31-.02,15.46-.06,2.6.99,3.55,3.54,3.49,4.65-.11,9.31-.03,15.14-.03,5.09-.53,11.45.98,17.65-.9Z"/>
        <path class="cls-2" d="M253.63,751.76c0-16.47.11-32.95-.08-49.42-.05-3.91,2.48-2.85,4.33-2.86,18.14-.07,36.29-.31,54.43.07,8.91.18,17.63,1.72,25.73,6.3,8.47,4.78,13.22,12.09,15.46,20.97,5.06,20.07-11.37,38.6-30.57,40.68-12.14,1.32-24.23.58-36.34.77-3.62.06-4.99.92-4.89,4.76.25,9.31-.02,18.64.13,27.96.05,3.16-.82,4.5-4.2,4.39-6.48-.21-12.99-.24-19.47.01-3.68.15-4.44-1.38-4.42-4.7.13-16.31.06-32.62.06-48.93-.06,0-.11,0-.17,0ZM313.38,745.37c7.54-.07,12.29-4.47,12.34-11.37.05-6.18-5.09-11.38-11.94-11.54-9.15-.21-18.31.01-27.47-.09-3.1-.03-4.65,1.03-4.57,4.33.12,4.82.1,9.66,0,14.48-.05,2.94,1.17,4.27,4.16,4.21,4.66-.09,9.32-.02,13.98-.02,4.49,0,8.99.04,13.48,0Z"/>
        <path class="cls-2" d="M442.61,878.13c0-3.83.14-7.66-.05-11.48-.15-3.09.68-4.59,4.13-4.46,5.93.22,11.87.04,17.8.07,4.16.02,6.92,2.3,8.44,5.92,1.52,3.63,1.3,8.09-1.48,10.26-5.04,3.92-1.94,6.7-.08,10.14.91,1.67,4.15,3.69,1.96,5.11-2.13,1.38-6,1.66-8.42-.44-1.93-1.69-3.63-4.11-4.41-6.54-1.2-3.72-3.71-3.8-6.6-3.39-3.74.54-2.32,3.64-2.2,5.58.24,4.03-.94,5.69-5.26,5.45-3.15-.18-4-1.35-3.89-4.23.16-3.99.04-7.98.04-11.98ZM459.97,876.23c2.7-.1,4.55-1.34,4.48-4.19-.07-2.78-2.31-2.79-4.37-2.79-1.82,0-3.65.06-5.47,0-2.08-.07-2.84.87-3.04,2.95-.45,4.57,2.52,4.18,4.88,4.04,1.54,0,2.54.03,3.53,0Z"/>
        <path class="cls-2" d="M666.38,878.36c0-3.98.17-7.98-.06-11.95-.19-3.35,1.19-4.32,4.36-4.21,5.64.19,11.29.21,16.93,0,4.88-.17,7.37,3.39,9.14,6.61,1.72,3.13,1.49,7.66-1.78,10.04-3.76,2.74-3.04,5.04-.82,7.95.3.39.52.85.72,1.31.83,1.94,3.81,3.31,2.35,5.74-1.02,1.7-8.3.03-9.75-2.02-1.24-1.75-2.81-3.47-3.38-5.45-1.05-3.65-3.65-3.27-6.27-3.08-3.52.25-2.33,3.06-2.4,4.96-.2,6.05-.62,6.43-6.01,6.02-2.45-.18-3.08-1.3-3.05-3.47.07-4.15.02-8.3.02-12.45ZM677.59,869.31c-2.1.08-2.23,1.6-2.2,3.18.03,1.63-.29,3.57,2.18,3.68,2.32.1,4.66.21,6.96-.03,2.47-.25,4.12-1.86,3.66-4.38-.67-3.64-3.87-2.14-5.57-2.46-2.04,0-3.54-.04-5.03.01Z"/>
        <path class="cls-2" d="M293.77,861.26c11.77,0,18.46,6.48,19.13,16.99.54,8.45-9.21,17.85-19.26,17.15-10.34-.73-17.9-7.39-17.86-17.35.03-10.24,7.04-16.78,17.99-16.78ZM284.84,878.12c-.09,4.55,4.45,9.89,8.58,10.1,5.83.3,9.99-3.61,10.26-9.67.28-5.95-3.66-10.16-9.64-10.29-4.61-.1-9.11,4.71-9.2,9.86Z"/>
        <path class="cls-2" d="M222.83,878.34c0-3.49.25-7.01-.06-10.47-.39-4.24.82-6.09,5.44-5.7,4.79.41,9.66.4,14.45,0,5-.41,7.91,2.31,9.91,6.06,2.13,3.99,1.66,8.18-1.75,11.41-2.37,2.24-2.08,4.24-.44,6.54.39.54,1.08,1.05,1.13,1.61.18,2.27,4.35,3.72,1.86,6.18-1.92,1.9-8.55-.22-10-2.65-.85-1.42-1.95-2.78-2.42-4.32-1.16-3.82-4.01-4.19-7.13-3.62-3.28.6-1.77,3.44-1.94,5.34-.25,2.74.69,5.69-4,5.64-3.81-.04-5.5-.94-5.12-5.04.34-3.63.07-7.31.07-10.97ZM237.82,869.24c-.49,0-1,.06-1.48-.01-2.36-.35-4.55-.91-4.6,2.9-.05,3.34,1.21,4.46,4.36,4.14,1.47-.15,2.97-.11,4.45-.01,2.73.18,4-1.31,4.16-3.77.17-2.69-1.68-3.26-3.91-3.23-.99.01-1.98,0-2.97,0v-.02Z"/>
        <path class="cls-2" d="M737.1,895.23c-10.46,0-17.9-6.93-17.75-16.62.17-10.75,8.14-18.02,18.41-17.48,11.57.6,18.4,6.73,18.63,17.36.17,8.06-8.54,18.28-19.28,16.75ZM737.79,868.26c-5.36,0-9.54,4.67-9.45,10.55.07,4.65,5.08,9.41,9.88,9.42,4.28,0,9.05-4.98,9.07-9.48.03-6.1-3.95-10.49-9.5-10.49Z"/>
        <path class="cls-2" d="M168.88,878.35c0-3.82.23-7.66-.07-11.46-.31-3.88,1.31-4.89,4.91-4.7,4.97.26,9.97.05,14.95.07,7.04.02,10.85,3.4,11.17,9.87.28,5.65-4.34,10.57-10.51,11.07-1.98.16-4.02.26-5.97,0-4.41-.6-6.07,1.09-5.55,5.52.32,2.72.8,5.69-3.88,5.63-3.8-.05-5.5-.93-5.12-5.04.34-3.63.07-7.31.07-10.96ZM183.77,869.24c-.5,0-1.01.08-1.49-.01-2.55-.51-4.43-.58-4.5,3.07-.07,3.6,1.64,4.2,4.58,3.97,1.82-.14,3.66.01,5.48-.07,2-.09,2.94-1.26,2.99-3.24.05-2.15-.76-3.56-3.08-3.66-1.33-.06-2.66-.01-3.99-.01v-.04Z"/>
        <path class="cls-2" d="M336.71,878.29c0-3.99.13-8-.04-11.98-.13-2.97.86-4.21,3.97-4.1,5.32.19,10.65.04,15.98.05,5.77.02,10.91,4.56,11.05,9.75.16,5.82-4.36,10.69-10.49,11.19-1.98.16-4.02.26-5.98,0-4.43-.6-6.07,1.11-5.55,5.54.32,2.75.76,5.66-3.91,5.62-3.88-.03-5.45-1.04-5.09-5.08.32-3.63.07-7.32.07-10.98ZM351.34,869.25c-.66,0-1.33-.05-1.99,0-1.97.18-4.7-.82-4.59,2.76.1,3.03,1.61,4.49,4.76,4.26,1.98-.15,3.97-.01,5.96-.06,2.28-.06,3.2-1.37,3.18-3.54-.02-2.24-1.13-3.36-3.35-3.39-1.32-.02-2.65,0-3.97,0v-.02Z"/>
        <path class="cls-2" d="M836.21,877.77c0-3.66.18-7.32-.05-10.96-.22-3.4.87-4.8,4.47-4.62,5.14.26,10.3.02,15.45.08,6.17.07,9.98,3.81,10.11,9.8.13,5.78-4.1,10.75-9.62,11.13-2.32.16-4.68.29-6.97-.02-4.56-.61-5.93,1.36-5.44,5.63.33,2.82.61,5.74-3.99,5.51-3.01-.15-4.14-1.07-4.01-4.09.19-4.14.05-8.3.05-12.46ZM857.78,871.99c-.21-4.15-4.73-3.47-7.86-3.72-3.22-.25-5.84,0-5.79,4.47.06,4.91,3.52,3.09,5.16,3.4,4.26.25,8.73.66,8.49-4.16Z"/>
      </g>
      <g>
        <polyline class="cls-1" points="269.31 297.5 269.31 428.02 330.55 428.02 330.55 389.74 307.59 389.74 307.59 297.5 269.31 297.5"/>
        <polyline class="cls-1" points="766.32 297.5 766.32 428.02 705.08 428.02 705.08 389.74 728.04 389.74 728.04 297.5 766.32 297.5"/>
        <polygon class="cls-1" points="383.18 220.76 383.18 388.4 405.38 388.4 405.38 428.02 383.18 428.02 383.18 472.23 343.56 472.23 343.56 220.76 383.18 220.76"/>
        <polygon class="cls-1" points="651.11 220.76 651.11 388.4 628.91 388.4 628.91 428.02 651.11 428.02 651.11 472.23 690.73 472.23 690.73 220.76 651.11 220.76"/>
        <rect class="cls-1" x="418.59" y="119.13" width="44.4" height="401.51"/>
        <polyline class="cls-1" points="537.81 595.38 537.81 0 537.81 595.38 493.89 595.38 493.89 0 537.81 0"/>
        <rect class="cls-1" x="573.41" y="119.13" width="39.62" height="401.51"/>
      </g>
    </g>
  </g>
</svg>